<svg width="204" height="24" viewBox="0 0 204 24" fill="none" xmlns="http://www.w3.org/2000/svg">
<line x1="12" y1="13" x2="192" y2="13" stroke="#BDD2C2" stroke-width="2"/>
<path d="M0 12C0 5.37258 5.37258 0 12 0C18.6274 0 24 5.37258 24 12C24 18.6274 18.6274 24 12 24C5.37258 24 0 18.6274 0 12Z" fill="#596B61"/>
<path d="M9.932 8.8V7.252H12.824V16H11.096V8.8H9.932Z" fill="#FEFEFC"/>
<path d="M12 21C7.02944 21 3 16.9706 3 12H-3C-3 20.2843 3.71573 27 12 27V21ZM21 12C21 16.9706 16.9706 21 12 21V27C20.2843 27 27 20.2843 27 12H21ZM12 3C16.9706 3 21 7.02944 21 12H27C27 3.71573 20.2843 -3 12 -3V3ZM12 -3C3.71573 -3 -3 3.71573 -3 12H3C3 7.02944 7.02944 3 12 3V-3Z" fill="#BDD2C2"/>
<path d="M90 12C90 5.37258 95.3726 0 102 0C108.627 0 114 5.37258 114 12C114 18.6274 108.627 24 102 24C95.3726 24 90 18.6274 90 12Z" fill="#596B61"/>
<path d="M98.66 9.556C98.7 8.756 98.98 8.14 99.5 7.708C100.028 7.268 100.72 7.048 101.576 7.048C102.16 7.048 102.66 7.152 103.076 7.36C103.492 7.56 103.804 7.836 104.012 8.188C104.228 8.532 104.336 8.924 104.336 9.364C104.336 9.868 104.204 10.296 103.94 10.648C103.684 10.992 103.376 11.224 103.016 11.344V11.392C103.48 11.536 103.84 11.792 104.096 12.16C104.36 12.528 104.492 13 104.492 13.576C104.492 14.056 104.38 14.484 104.156 14.86C103.94 15.236 103.616 15.532 103.184 15.748C102.76 15.956 102.248 16.06 101.648 16.06C100.744 16.06 100.008 15.832 99.44 15.376C98.872 14.92 98.572 14.248 98.54 13.36H100.172C100.188 13.752 100.32 14.068 100.568 14.308C100.824 14.54 101.172 14.656 101.612 14.656C102.02 14.656 102.332 14.544 102.548 14.32C102.772 14.088 102.884 13.792 102.884 13.432C102.884 12.952 102.732 12.608 102.428 12.4C102.124 12.192 101.652 12.088 101.012 12.088H100.664V10.708H101.012C102.148 10.708 102.716 10.328 102.716 9.568C102.716 9.224 102.612 8.956 102.404 8.764C102.204 8.572 101.912 8.476 101.528 8.476C101.152 8.476 100.86 8.58 100.652 8.788C100.452 8.988 100.336 9.244 100.304 9.556H98.66Z" fill="#FEFEFC"/>
<path d="M102 21C97.0294 21 93 16.9706 93 12H87C87 20.2843 93.7157 27 102 27V21ZM111 12C111 16.9706 106.971 21 102 21V27C110.284 27 117 20.2843 117 12H111ZM102 3C106.971 3 111 7.02944 111 12H117C117 3.71573 110.284 -3 102 -3V3ZM102 -3C93.7157 -3 87 3.71573 87 12H93C93 7.02944 97.0294 3 102 3V-3Z" fill="#FEFEFC"/>
<path d="M45 12C45 5.37258 50.3726 0 57 0C63.6274 0 69 5.37258 69 12C69 18.6274 63.6274 24 57 24C50.3726 24 45 18.6274 45 12Z" fill="#596B61"/>
<path d="M54.664 14.104C55.432 13.464 56.044 12.932 56.5 12.508C56.956 12.076 57.336 11.628 57.64 11.164C57.944 10.7 58.096 10.244 58.096 9.796C58.096 9.388 58 9.068 57.808 8.836C57.616 8.604 57.32 8.488 56.92 8.488C56.52 8.488 56.212 8.624 55.996 8.896C55.78 9.16 55.668 9.524 55.66 9.988H54.028C54.06 9.028 54.344 8.3 54.88 7.804C55.424 7.308 56.112 7.06 56.944 7.06C57.856 7.06 58.556 7.304 59.044 7.792C59.532 8.272 59.776 8.908 59.776 9.7C59.776 10.324 59.608 10.92 59.272 11.488C58.936 12.056 58.552 12.552 58.12 12.976C57.688 13.392 57.124 13.896 56.428 14.488H59.968V15.88H54.04V14.632L54.664 14.104Z" fill="#FEFEFC"/>
<path d="M57 21C52.0294 21 48 16.9706 48 12H42C42 20.2843 48.7157 27 57 27V21ZM66 12C66 16.9706 61.9706 21 57 21V27C65.2843 27 72 20.2843 72 12H66ZM57 3C61.9706 3 66 7.02944 66 12H72C72 3.71573 65.2843 -3 57 -3V3ZM57 -3C48.7157 -3 42 3.71573 42 12H48C48 7.02944 52.0294 3 57 3V-3Z" fill="#FEFEFC"/>
<path d="M135 12C135 5.37258 140.373 0 147 0C153.627 0 159 5.37258 159 12C159 18.6274 153.627 24 147 24C140.373 24 135 18.6274 135 12Z" fill="#596B61"/>
<path d="M143.564 14.296V12.976L147.488 7.36H149.444V12.832H150.5V14.296H149.444V16H147.764V14.296H143.564ZM147.872 9.16L145.412 12.832H147.872V9.16Z" fill="#FEFEFC"/>
<path d="M147 21C142.029 21 138 16.9706 138 12H132C132 20.2843 138.716 27 147 27V21ZM156 12C156 16.9706 151.971 21 147 21V27C155.284 27 162 20.2843 162 12H156ZM147 3C151.971 3 156 7.02944 156 12H162C162 3.71573 155.284 -3 147 -3V3ZM147 -3C138.716 -3 132 3.71573 132 12H138C138 7.02944 142.029 3 147 3V-3Z" fill="#FEFEFC"/>
<path d="M180 12C180 5.37258 185.373 0 192 0C198.627 0 204 5.37258 204 12C204 18.6274 198.627 24 192 24C185.373 24 180 18.6274 180 12Z" fill="#596B61"/>
<path d="M194.516 8.704H190.628V10.756C190.796 10.548 191.036 10.38 191.348 10.252C191.66 10.116 191.992 10.048 192.344 10.048C192.984 10.048 193.508 10.188 193.916 10.468C194.324 10.748 194.62 11.108 194.804 11.548C194.988 11.98 195.08 12.444 195.08 12.94C195.08 13.86 194.816 14.6 194.288 15.16C193.768 15.72 193.024 16 192.056 16C191.144 16 190.416 15.772 189.872 15.316C189.328 14.86 189.02 14.264 188.948 13.528H190.58C190.652 13.848 190.812 14.104 191.06 14.296C191.316 14.488 191.64 14.584 192.032 14.584C192.504 14.584 192.86 14.436 193.1 14.14C193.34 13.844 193.46 13.452 193.46 12.964C193.46 12.468 193.336 12.092 193.088 11.836C192.848 11.572 192.492 11.44 192.02 11.44C191.684 11.44 191.404 11.524 191.18 11.692C190.956 11.86 190.796 12.084 190.7 12.364H189.092V7.228H194.516V8.704Z" fill="#FEFEFC"/>
<path d="M192 21C187.029 21 183 16.9706 183 12H177C177 20.2843 183.716 27 192 27V21ZM201 12C201 16.9706 196.971 21 192 21V27C200.284 27 207 20.2843 207 12H201ZM192 3C196.971 3 201 7.02944 201 12H207C207 3.71573 200.284 -3 192 -3V3ZM192 -3C183.716 -3 177 3.71573 177 12H183C183 7.02944 187.029 3 192 3V-3Z" fill="#FEFEFC"/>
</svg>
