<svg width="204" height="24" viewBox="0 0 204 24" fill="none" xmlns="http://www.w3.org/2000/svg">
<line x1="12" y1="13" x2="192" y2="13" stroke="#BDD2C2" stroke-width="2"/>
<path d="M0 12C0 5.37258 5.37258 0 12 0V0C18.6274 0 24 5.37258 24 12V12C24 18.6274 18.6274 24 12 24V24C5.37258 24 0 18.6274 0 12V12Z" fill="#596B61"/>
<path d="M11.096 16H12.824V7.252H9.932V8.8H11.096V16Z" fill="#FEFEFC"/>
<path d="M12 21C7.02944 21 3 16.9706 3 12H-3C-3 20.2843 3.71573 27 12 27V21ZM21 12C21 16.9706 16.9706 21 12 21V27C20.2843 27 27 20.2843 27 12H21ZM12 3C16.9706 3 21 7.02944 21 12H27C27 3.71573 20.2843 -3 12 -3V3ZM12 -3C3.71573 -3 -3 3.71573 -3 12H3C3 7.02944 7.02944 3 12 3V-3Z" fill="#BDD2C2"/>
<path d="M90 12C90 5.37258 95.3726 0 102 0V0C108.627 0 114 5.37258 114 12V12C114 18.6274 108.627 24 102 24V24C95.3726 24 90 18.6274 90 12V12Z" fill="#596B61"/>
<path d="M98.66 9.556H100.304C100.364 9.004 100.712 8.476 101.528 8.476C102.296 8.476 102.716 8.884 102.716 9.568C102.716 10.432 101.996 10.708 101.012 10.708H100.664V12.088H101.012C102.26 12.088 102.884 12.448 102.884 13.432C102.884 14.128 102.452 14.656 101.612 14.656C100.712 14.656 100.208 14.116 100.172 13.36H98.54C98.612 15.196 99.92 16.06 101.648 16.06C103.484 16.06 104.492 15.004 104.492 13.576C104.492 12.388 103.904 11.668 103.016 11.392V11.344C103.652 11.128 104.336 10.456 104.336 9.364C104.336 8.068 103.376 7.048 101.576 7.048C99.896 7.048 98.744 7.936 98.66 9.556Z" fill="#FEFEFC"/>
<path d="M102 21C97.0294 21 93 16.9706 93 12H87C87 20.2843 93.7157 27 102 27V21ZM111 12C111 16.9706 106.971 21 102 21V27C110.284 27 117 20.2843 117 12H111ZM102 3C106.971 3 111 7.02944 111 12H117C117 3.71573 110.284 -3 102 -3V3ZM102 -3C93.7157 -3 87 3.71573 87 12H93C93 7.02944 97.0294 3 102 3V-3Z" fill="#FEFEFC"/>
<path d="M45 12C45 5.37258 50.3726 0 57 0V0C63.6274 0 69 5.37258 69 12V12C69 18.6274 63.6274 24 57 24V24C50.3726 24 45 18.6274 45 12V12Z" fill="#596B61"/>
<path d="M54.04 15.88H59.968V14.488H56.428C57.82 13.312 59.776 11.728 59.776 9.7C59.776 8.176 58.828 7.06 56.944 7.06C55.372 7.06 54.088 7.984 54.028 9.988H55.66C55.672 9.064 56.116 8.488 56.92 8.488C57.748 8.488 58.096 9.016 58.096 9.796C58.096 11.404 56.02 12.952 54.04 14.632V15.88Z" fill="#FEFEFC"/>
<path d="M57 21C52.0294 21 48 16.9706 48 12H42C42 20.2843 48.7157 27 57 27V21ZM66 12C66 16.9706 61.9706 21 57 21V27C65.2843 27 72 20.2843 72 12H66ZM57 3C61.9706 3 66 7.02944 66 12H72C72 3.71573 65.2843 -3 57 -3V3ZM57 -3C48.7157 -3 42 3.71573 42 12H48C48 7.02944 52.0294 3 57 3V-3Z" fill="#BDD2C2"/>
<path d="M135 12C135 5.37258 140.373 0 147 0V0C153.627 0 159 5.37258 159 12V12C159 18.6274 153.627 24 147 24V24C140.373 24 135 18.6274 135 12V12Z" fill="#596B61"/>
<path d="M147.764 16H149.444V14.296H150.5V12.832H149.444V7.36H147.488L143.564 12.976V14.296H147.764V16ZM145.412 12.832L147.872 9.16V12.832H145.412Z" fill="#FEFEFC"/>
<path d="M147 21C142.029 21 138 16.9706 138 12H132C132 20.2843 138.716 27 147 27V21ZM156 12C156 16.9706 151.971 21 147 21V27C155.284 27 162 20.2843 162 12H156ZM147 3C151.971 3 156 7.02944 156 12H162C162 3.71573 155.284 -3 147 -3V3ZM147 -3C138.716 -3 132 3.71573 132 12H138C138 7.02944 142.029 3 147 3V-3Z" fill="#FEFEFC"/>
<path d="M180 12C180 5.37258 185.373 0 192 0V0C198.627 0 204 5.37258 204 12V12C204 18.6274 198.627 24 192 24V24C185.373 24 180 18.6274 180 12V12Z" fill="#596B61"/>
<path d="M189.092 7.228V12.364H190.7C190.88 11.824 191.324 11.44 192.02 11.44C192.968 11.44 193.46 11.98 193.46 12.964C193.46 13.888 193.016 14.584 192.032 14.584C191.216 14.584 190.724 14.14 190.58 13.528H188.948C189.092 14.956 190.172 16 192.056 16C194.048 16 195.08 14.728 195.08 12.94C195.08 11.584 194.384 10.048 192.344 10.048C191.612 10.048 190.952 10.36 190.628 10.756V8.704H194.516V7.228H189.092Z" fill="#FEFEFC"/>
<path d="M192 21C187.029 21 183 16.9706 183 12H177C177 20.2843 183.716 27 192 27V21ZM201 12C201 16.9706 196.971 21 192 21V27C200.284 27 207 20.2843 207 12H201ZM192 3C196.971 3 201 7.02944 201 12H207C207 3.71573 200.284 -3 192 -3V3ZM192 -3C183.716 -3 177 3.71573 177 12H183C183 7.02944 187.029 3 192 3V-3Z" fill="#FEFEFC"/>
</svg>
