<svg width="34" height="34" viewBox="0 0 34 34" fill="none" xmlns="http://www.w3.org/2000/svg">
<path d="M23 3.66671C23 1.81671 24.4462 0.333374 26.25 0.333374C28.0538 0.333374 29.5 1.81671 29.5 3.66671C29.5 5.51671 28.0538 7.00004 26.25 7.00004C24.4462 7.00004 23 5.51671 23 3.66671ZM29.5 33.6667V23.6667H33.5625L29.435 10.95C28.98 9.58337 27.745 8.66671 26.3475 8.66671H26.1525C24.755 8.66671 23.5038 9.58337 23.065 10.95L21.6675 15.25C23.4225 16.25 24.625 18.1334 24.625 20.3334V33.6667H29.5ZM17.3125 16.1667C18.6612 16.1667 19.75 15.05 19.75 13.6667C19.75 12.2834 18.6612 11.1667 17.3125 11.1667C15.9638 11.1667 14.875 12.2834 14.875 13.6667C14.875 15.05 15.9638 16.1667 17.3125 16.1667ZM5.9375 7.00004C7.74125 7.00004 9.1875 5.51671 9.1875 3.66671C9.1875 1.81671 7.74125 0.333374 5.9375 0.333374C4.13375 0.333374 2.6875 1.81671 2.6875 3.66671C2.6875 5.51671 4.13375 7.00004 5.9375 7.00004ZM9.1875 33.6667V22H11.625V12C11.625 10.1667 10.1625 8.66671 8.375 8.66671H3.5C1.7125 8.66671 0.25 10.1667 0.25 12V22H2.6875V33.6667H9.1875ZM19.75 33.6667V27H21.375V20.3334C21.375 18.9667 20.27 17.8334 18.9375 17.8334H15.6875C14.355 17.8334 13.25 18.9667 13.25 20.3334V27H14.875V33.6667H19.75Z" fill="#596B61"/>
</svg>
