<svg width="25" height="24" viewBox="0 0 25 24" fill="none" xmlns="http://www.w3.org/2000/svg">
<path d="M16.5 4C16.5 2.89 17.39 2 18.5 2C19.61 2 20.5 2.89 20.5 4C20.5 5.11 19.61 6 18.5 6C17.39 6 16.5 5.11 16.5 4ZM20.5 22V16H23L20.46 8.37C20.18 7.55 19.42 7 18.56 7H18.44C17.58 7 16.81 7.55 16.54 8.37L15.68 10.95C16.76 11.55 17.5 12.68 17.5 14V22H20.5ZM13 11.5C13.83 11.5 14.5 10.83 14.5 10C14.5 9.17 13.83 8.5 13 8.5C12.17 8.5 11.5 9.17 11.5 10C11.5 10.83 12.17 11.5 13 11.5ZM6 6C7.11 6 8 5.11 8 4C8 2.89 7.11 2 6 2C4.89 2 4 2.89 4 4C4 5.11 4.89 6 6 6ZM8 22V15H9.5V9C9.5 7.9 8.6 7 7.5 7H4.5C3.4 7 2.5 7.9 2.5 9V15H4V22H8ZM14.5 22V18H15.5V14C15.5 13.18 14.82 12.5 14 12.5H12C11.18 12.5 10.5 13.18 10.5 14V18H11.5V22H14.5Z" fill="#FEFEFC"/>
</svg>
