<svg width="33" height="30" viewBox="0 0 33 30" fill="none" xmlns="http://www.w3.org/2000/svg">
<path fill-rule="evenodd" clip-rule="evenodd" d="M29.5 0H3.5C1.7125 0 0.25 1.5 0.25 3.33333V26.6667C0.25 28.5 1.7125 30 3.5 30H29.5C31.2875 30 32.75 28.5 32.75 26.6667V3.33333C32.75 1.5 31.2875 0 29.5 0ZM13.25 23.3333H5.125V20H13.25V23.3333ZM13.25 16.6667H5.125V13.3333H13.25V16.6667ZM13.25 10H5.125V6.66667H13.25V10ZM21.0825 20L16.5 15.2667L18.7912 12.9167L21.0825 15.2833L26.2337 10L28.5412 12.3667L21.0825 20Z" fill="#596B61"/>
</svg>
