<svg width="45" height="95" viewBox="0 0 45 95" fill="none" xmlns="http://www.w3.org/2000/svg">
<path fill-rule="evenodd" clip-rule="evenodd" d="M19.8469 94.0023L21.6017 71.4702L9.07944 71.0042C8.65168 76.0506 8.99174 85.3925 9.48306 94.0023H19.8469Z" fill="#FAE0B2"/>
<path fill-rule="evenodd" clip-rule="evenodd" d="M36.0496 69.0045L33.383 66.6295L22.3409 71.0076C22.3409 71.0076 32.5504 88.512 34.3928 94.0023H44.2755C41.8223 86.0717 39.3475 78.0754 39.2267 77.7024C39.0525 77.1643 36.0496 69.0045 36.0496 69.0045Z" fill="#FAE0B2"/>
<path d="M18.9265 3.38996C18.9265 3.38996 22.4672 2.10139 24.7548 5.70152C27.0425 9.30165 25.8065 8.96065 26.9196 10.7616C28.0326 12.5608 28.5687 17.6791 28.9528 20.4447C32.8776 48.658 -14.0683 50.9456 4.26518 14.982C5.98431 11.6081 7.43884 9.58095 8.98555 5.98082C10.5323 2.38069 17.0708 2.5212 18.9265 3.38996Z" fill="#B75742"/>
<path d="M18.3682 26.5106C16.7618 26.6768 4.81489 25.5373 4.14908 28.0888C0.570817 41.797 5.49264 60.7213 6.74913 61.9841C8.00733 63.247 28.5397 59.1362 28.5397 59.1362C28.5397 59.1362 31.7611 25.1244 18.3682 26.5106Z" fill="#466EB6"/>
<path d="M34.6753 12.458C34.6753 12.458 33.3556 11.8274 32.1572 9.5964C31.3872 8.1656 29.0996 6.33041 30.0522 6.03397C31.0048 5.73752 32.4645 8.15703 32.7376 7.46305C33.0108 6.77078 30.2861 1.53252 31.1499 1.26349C32.0138 0.994469 34.2724 6.09051 34.5165 5.47021C34.7606 4.84991 32.2101 0.39816 33.429 0.0177559C34.6497 -0.362648 35.9676 5.49763 36.6215 5.29372C37.277 5.08981 36.3227 0.619205 37.3044 0.314197C38.286 0.00918822 38.1477 5.84205 38.5011 5.67412C38.6923 5.58331 39.563 2.75769 40.0973 2.97017C40.7 3.21007 39.073 9.01037 39.7951 10.2887C40.5173 11.567 46.3029 27.4617 44.326 29.4477C42.1716 31.6118 28.456 36.5725 25.5862 35.7192C22.7164 34.8658 21.0724 32.0197 21.7621 30.2684C22.4518 28.5172 36.012 24.5847 36.2271 24.0363C36.4405 23.488 34.6753 12.458 34.6753 12.458Z" fill="#F0985E"/>
<path d="M35.7747 7.43734C36.1896 7.4202 36.5976 7.51273 36.9902 7.65838C37.0483 7.69951 38.3474 8.07991 38.9074 9.52271C38.2894 8.78417 37.6031 7.96853 35.7747 7.43734Z" fill="#F48C7F"/>
<path d="M8.42899 29.4767C8.42899 29.4767 13.2057 28.219 18.6346 27.9174C21.4446 27.7615 25.2209 28.3595 25.2209 28.3595C25.2209 28.3595 28.654 36.0875 29.6732 42.419C30.6941 48.7505 36.2596 69.049 36.2596 69.049C36.2596 69.049 24.9409 77.8017 8.42899 72.0289V29.4767V29.4767Z" fill="#50BFA5"/>
<path d="M21.2927 22.5558C21.2927 22.5558 21.1441 27.4993 21.6068 27.9637C22.0694 28.428 22.7147 29.1974 22.0353 30.3763C21.3541 31.5552 18.4024 30.803 17.0264 30.1279C15.705 29.4802 14.8514 28.2755 14.8514 28.2755L15.5411 20.4447L21.2927 22.5558Z" fill="#F79C8D"/>
<path d="M19.3294 24.6034C18.3802 24.271 16.7242 23.6267 15.4455 21.5414L15.5411 20.4447L21.2926 22.5558C21.2926 22.5558 21.2568 23.7621 21.2756 25.0387C20.4698 25.0044 19.7818 24.7628 19.3294 24.6034Z" fill="#B75742"/>
<path d="M14.5271 14.8553C14.5271 14.8553 14.3871 11.9491 12.6099 12.5129C10.831 13.0766 12.1865 17.4633 13.6615 17.3193C15.1348 17.1754 14.5271 14.8553 14.5271 14.8553Z" fill="#F79C8D"/>
<path d="M20.1181 5.36051C20.1181 5.36051 22.9008 5.29882 24.3229 7.47158C25.745 9.64434 27.2917 15.8507 24.9409 20.1346C22.5901 24.4184 19.5923 23.3629 18.3546 22.9276C17.1169 22.4924 14.6756 21.5311 13.4379 17.5266C12.2019 13.5238 13.0982 4.52259 20.1181 5.36051Z" fill="#F79C8D"/>
<path d="M8.95995 29.3466C10.2284 32.2219 13.3508 38.4129 13.2074 45.2413C13.0572 52.3936 7.69833 57.0355 7.69833 57.0355V60.5706C7.69833 60.5706 13.6137 59.635 15.8741 50.3939C18.1361 41.1528 12.6953 28.5978 12.6953 28.5978C12.6953 28.5978 11.9185 28.0426 10.3803 28.4727C9.3526 28.7606 8.95995 29.3466 8.95995 29.3466Z" fill="#355389"/>
<path d="M21.9533 27.8918C21.9533 27.8918 26.3971 51.9018 32.1623 53.4577L31.1585 49.364C31.1585 49.364 25.2192 29.9377 25.2192 28.3596C25.2192 26.7814 21.9533 27.8918 21.9533 27.8918Z" fill="#355389"/>
<path d="M33.9788 68.9754H16.7328V49.2509L33.9788 50.0203V68.9754Z" fill="#F47458"/>
<path d="M33.9788 48.4833H17.4993C17.0759 48.4833 16.7328 48.8277 16.7328 49.2527C16.7328 49.6776 17.0759 50.022 17.4993 50.022H33.9788L33.9651 50.0169C32.8264 49.5868 32.8315 48.9082 33.9788 48.4833Z" fill="#B75742"/>
<path d="M33.5076 48.7095H18.0678C17.769 48.7095 17.5283 48.9511 17.5283 49.2509C17.5283 49.5508 17.769 49.7924 18.0678 49.7924H33.5076C32.9835 49.4583 32.9852 49.0453 33.5076 48.7095Z" fill="#FAE0B2"/>
<path d="M26.4193 48.8208H25.3336C25.0997 48.8208 24.9102 49.011 24.9102 49.2458V49.2835H26.4193V48.8208Z" fill="#13375B"/>
<path d="M25.378 48.8225C25.6375 48.8225 26.025 49.0436 26.2435 49.3143L28.8197 52.5203L30.3322 52.5186L27.8824 49.4703C27.5939 49.1121 27.0834 48.8208 26.742 48.8208L25.378 48.8225Z" fill="#355389"/>
<path d="M8.42899 29.4768C8.42899 29.4768 9.72986 30.7842 11.1212 35.7449C12.5126 40.7056 13.2211 52.3199 14.428 53.5296C15.6333 54.7394 23.5188 61.0401 24.9409 60.8242C26.363 60.6065 29.5486 56.883 30.5388 56.883C31.5289 56.883 31.4043 57.7826 30.9092 58.2796C30.4142 58.7765 29.8115 59.3505 30.1052 59.6452C30.3988 59.94 30.3988 59.94 30.3988 59.94C30.3988 59.94 34.805 58.7765 35.5477 59.21C36.2903 59.6452 34.8358 60.6682 34.8358 61.4136C34.8358 62.159 35.0167 62.1453 34.928 62.9661C34.8392 63.7868 34.6343 64.4397 34.2485 64.8287C33.8627 65.2159 28.9921 66.6296 24.229 65.9767C19.4677 65.3256 13.653 63.0278 9.35599 57.6901C5.05729 52.3507 5.91942 35.5736 6.01673 33.8994C6.26427 29.6636 8.42899 29.4768 8.42899 29.4768Z" fill="#F79C8D"/>
</svg>
