<svg width="87" height="93" viewBox="0 0 87 93" fill="none" xmlns="http://www.w3.org/2000/svg">
<path d="M67.4753 24.6924C69.5296 23.3476 74.3554 18.1787 75.9892 16.4187C76.0071 16.2111 76.163 15.016 77.4775 13.4962C78.4059 12.4226 79.1084 9.97462 79.7174 10.6685C80.3264 11.3625 78.8158 13.3078 79.5065 13.3212C80.1987 13.3345 83.6312 9.48086 84.1838 10.111C84.7348 10.7397 81.2488 14.1649 81.8682 14.1767C82.4875 14.1886 85.3171 10.7204 86.0969 11.6086C86.8767 12.4983 82.388 15.3807 82.8054 15.8582C83.2243 16.3356 86.0063 14.4451 86.6346 15.1613C87.2629 15.8775 82.7103 17.5633 83.0743 17.5693C83.4382 17.5767 86.0642 17.5055 86.0835 18.0097C86.1058 18.5805 79.4397 19.4687 78.6227 20.4562C76.8804 23.2245 73.7806 28.2822 70.6406 30.5004C66.798 33.2153 57.9188 38.9743 57.9188 38.9743L53.5088 33.2865C53.5088 33.2865 65.0379 26.2864 67.4753 24.6924Z" fill="#F0985E"/>
<path d="M79.508 14.5444C79.6788 14.881 79.7516 15.2458 79.7768 15.6135C79.7635 15.6728 79.9254 16.862 78.9094 17.7665C79.3045 17.031 79.7412 16.214 79.508 14.5444Z" fill="#F48C7F"/>
<path d="M26.7715 18.4693C25.1406 16.6352 21.8372 10.3868 20.7203 8.26057C20.7574 8.05595 20.9208 6.86085 20.0504 5.05189C19.4354 3.77376 19.3983 1.22639 18.6289 1.73794C17.8595 2.24949 18.8086 4.52107 18.1373 4.35203C17.4659 4.18448 15.1607 -0.431329 14.4641 0.0327725C13.766 0.495391 16.2346 4.71086 15.6345 4.5611C15.0344 4.41134 13.2104 0.323392 12.2257 0.978769C11.2394 1.63415 14.8176 5.58865 14.2888 5.94006C13.76 6.29147 11.5692 3.74114 10.776 4.26752C9.98283 4.79389 13.9338 7.60964 13.5818 7.52216C13.2283 7.43319 10.7121 6.67996 10.5606 7.16185C10.3898 7.7075 16.591 10.3053 17.1213 11.4707C18.0779 14.5979 19.7459 20.2887 22.1952 23.2497C25.1926 26.8736 32.2538 34.75 32.2538 34.75L38.0005 30.4114C37.9991 30.4099 28.7054 20.643 26.7715 18.4693Z" fill="#F0985E"/>
<path d="M17.815 5.53381C17.5625 5.81405 17.3961 6.14767 17.2758 6.49612C17.2728 6.55691 16.8049 7.66305 17.5491 8.80032C17.3604 7.98777 17.1525 7.08477 17.815 5.53381Z" fill="#F48C7F"/>
<path d="M39.0432 31.4241C39.8795 30.1771 41.3188 29.4713 42.8189 29.5721C47.2274 29.8717 56.1676 30.5774 57.0157 31.4241C58.146 32.5525 61.5355 39.9114 58.3064 50.2239C55.0773 60.5365 53.3024 59.463 50.6659 59.463C48.0295 59.463 35.6003 53.6076 35.6003 53.6076L39.0432 31.4241Z" fill="#355389"/>
<path d="M31.428 22.6685L26.2442 29.4179L32.6786 38.9743C32.6786 38.9743 32.0726 46.0737 31.1443 48.2904C30.2159 50.5057 24.8495 59.6112 24.8495 59.6112C24.8495 59.6112 37.8847 67.5885 50.6377 66.4201C50.6377 66.4201 54.2292 47.9687 55.2378 46.1968C56.2463 44.4234 65.9722 35.6411 65.9722 35.6411L61.2504 28.0256L53.0989 32.5391C53.0989 32.5391 38.1981 30.1356 37.4807 29.4194C36.7647 28.7033 31.428 22.6685 31.428 22.6685Z" fill="#F7CC7F"/>
<path d="M48.2434 8.86401C48.2434 8.86401 43.2126 6.20544 41.4911 10.6092C41.4911 10.6092 36.9712 10.1525 37.751 14.8262C37.751 14.8262 33.2045 17.1096 36.083 22.9902C36.083 22.9902 34.819 28.5224 41.3025 28.8723C41.3025 28.8723 42.2709 30.8325 45.2311 30.3758C48.1899 29.9191 48.9445 29.1407 48.9445 29.1407C48.9445 29.1407 54.1906 30.6709 55.7785 25.9453C55.7785 25.9453 59.3833 25.0853 56.9623 20.4666C56.9623 20.4666 60.1097 14.4777 54.5679 12.6777C54.5664 12.6777 53.9203 6.55389 48.2434 8.86401Z" fill="#F47458"/>
<path d="M50.2753 21.8382C49.8668 22.9769 50.1594 24.1246 50.9318 24.4004C51.7027 24.6762 52.6592 23.9763 53.0677 22.8375C53.4762 21.6988 53.1821 20.5511 52.4112 20.2753C51.6418 20.001 50.6852 20.7009 50.2753 21.8382Z" fill="#F0985E"/>
<path d="M36.7053 19.0432C36.6474 20.2516 37.2653 21.2629 38.0837 21.3014C38.9021 21.34 39.6121 20.391 39.6686 19.1826C39.725 17.9741 39.1086 16.9629 38.2902 16.9244C37.4732 16.8858 36.7633 17.8348 36.7053 19.0432Z" fill="#F0985E"/>
<path d="M42.4595 27.0471C42.4595 27.1256 41.8059 29.931 41.4584 31.4123C41.3291 31.9653 41.6099 32.5303 42.1268 32.766C43.5096 33.3962 46.2307 34.277 48.1097 32.5762C48.2805 32.4206 48.3726 32.1967 48.3651 31.9668L48.1349 25.2737L42.4595 27.0471Z" fill="#F0985E"/>
<path d="M42.109 28.6173C43.572 29.3542 45.4138 29.369 47.4799 28.1606C47.7413 28.0079 47.9879 27.8448 48.2196 27.6728L48.1364 25.2751L42.4595 27.0485C42.4595 27.0856 42.3065 27.7617 42.109 28.6173Z" fill="#F48C7F"/>
<path d="M46.4847 11.5938C46.4847 11.5938 48.9622 12.2477 50.4179 14.6542C51.8735 17.0607 52.677 24.0163 47.4784 27.0589C42.2798 30.1015 38.4966 25.3893 38.5947 20.9321C38.6942 16.475 40.6801 10.7768 46.4847 11.5938Z" fill="#F0985E"/>
<path d="M38.002 29.6508C35.6092 31.4583 33.1034 40.7166 32.1543 43.1335L31.3908 47.5729L41.1301 30.3996C41.1316 30.3996 38.5174 29.2623 38.002 29.6508Z" fill="#466EB6"/>
<path d="M49.8267 31.9949C49.8267 31.9949 49.5356 43.4032 50.3956 47.3236C51.2571 51.2455 53.5088 52.6156 53.5088 52.6156L54.6169 48.0532C54.6169 48.0532 53.5088 37.9779 53.1004 32.5391C53.038 31.7132 49.8267 31.9949 49.8267 31.9949Z" fill="#466EB6"/>
<path fill-rule="evenodd" clip-rule="evenodd" d="M6.92891 86.1937C4.50519 84.8715 2.18998 83.3754 3.05176e-05 81.7221L27.4741 58.3628L49.2772 64.3294L46.5805 93H37.7067C37.4744 83.6479 37.1622 72.3291 36.998 71.6957C36.7143 70.6089 35.5037 69.9238 34.011 70.1255C32.8148 70.2859 14.2556 81.675 6.92891 86.1937Z" fill="#50BFA5"/>
</svg>
