<svg width="41" height="42" viewBox="0 0 41 42" fill="none" xmlns="http://www.w3.org/2000/svg">
<g clip-path="url(#clip0_286_14487)">
<path d="M24.1273 13.6462C22.2699 16.7362 24.5947 20.8532 27.7643 21.9977C31.2685 23.2634 35.3627 21.7779 37.3042 18.7013C39.4065 15.3711 38.4799 11.5644 35.2285 9.8267C32.0631 8.13572 28.7074 10.0914 28.3838 13.4046C28.1513 15.7804 29.7389 17.399 30.9592 17.2514C31.9117 17.1366 32.3597 15.9882 31.5313 15.3881C31.1996 15.1469 30.7335 15.1834 30.416 15.3755C29.7515 14.7115 29.6185 12.9393 30.8163 11.6145C32.3464 9.92129 34.9406 10.924 36.1155 12.541C37.6115 14.5991 36.8172 17.2716 35.194 18.9675C33.4908 20.7496 30.6448 21.4916 28.2729 20.6442C25.5864 19.6843 24.154 16.7093 25.0662 14.0612C25.2832 13.436 24.4596 13.0932 24.1273 13.6462Z" fill="#86B1F2"/>
<path d="M8.42485 23.4129L0.800933 27.4819L10.5528 33.9338L8.42485 23.4129Z" fill="#96D9C9"/>
</g>
<defs>
<clipPath id="clip0_286_14487">
<rect width="30" height="32" fill="white" transform="translate(12.8423) rotate(23.6609)"/>
</clipPath>
</defs>
</svg>
