<svg width="47" height="47" viewBox="0 0 47 47" fill="none" xmlns="http://www.w3.org/2000/svg">
<g clip-path="url(#clip0_286_14488)">
<path d="M24.9718 16.8801L27.4542 17.7504L29.3241 15.8247L32.0373 16.9988L33.3972 14.3317L36.5251 15.5228L38.0791 13.2216L41.2743 13.8754L41.0292 15.089L38.6398 14.6L36.9997 17.0275L33.9931 15.8826L32.6109 18.5946L29.6156 17.299L27.7905 19.1803L25.4894 18.372L24.5488 19.859L23.5059 19.1952L24.9718 16.8801Z" fill="#50BFA5"/>
<path d="M1.38646 27.887L4.14558 26.2435L4.36062 23.0395C4.3856 22.6742 4.81698 22.4955 5.09217 22.7363L7.50318 24.852L10.614 24.0618C10.9685 23.9723 11.2711 24.3271 11.1274 24.6633L9.85875 27.6141L11.5668 30.3293C11.7617 30.6388 11.5163 31.0368 11.153 31.0048L7.95763 30.7126L5.90254 33.1811C5.66824 33.4622 5.21418 33.3538 5.13363 32.997L4.42811 29.8653L1.44992 28.6748C1.10862 28.5409 1.072 28.074 1.38646 27.887Z" fill="#F47458"/>
<path d="M35.6231 33.6719L33.3973 31.5495L31.6274 32.9855L29.3581 30.9679L27.4337 32.0955L25.5358 30.7997L25.0576 31.5889L27.5959 33.3218L29.4188 32.2532L31.7802 34.3522L33.5211 32.9388L35.5387 34.8628L35.6231 33.6719Z" fill="#F7CC7F"/>
</g>
<defs>
<clipPath id="clip0_286_14488">
<rect width="33" height="35" fill="white" transform="translate(17.8217) rotate(30.61)"/>
</clipPath>
</defs>
</svg>
