<svg width="101" height="24" viewBox="0 0 101 24" fill="none" xmlns="http://www.w3.org/2000/svg">
<path d="M8.2419 7.36135C10.241 7.03358 11.5985 5.13063 11.2741 3.111C10.9497 1.09138 9.06609 -0.280145 7.06701 0.0476282C5.06793 0.375401 3.71037 2.27835 4.0348 4.29797C4.35924 6.3176 6.24283 7.68912 8.2419 7.36135Z" fill="#F0985E"/>
<path d="M28.1714 11.6442C25.3768 8.82092 20.8305 8.82092 18.036 11.6442L17.0255 12.6651L19.4356 15.1L20.4461 14.0791C21.9101 12.6 24.2949 12.6 25.759 14.0791C27.223 15.5581 27.223 17.9674 25.759 19.4465C24.2949 20.9256 21.9101 20.9256 20.4484 19.4465L12.7301 11.6442C9.93556 8.82092 5.38927 8.82092 2.59474 11.6442C-0.199792 14.4674 -0.199792 19.0605 2.59474 21.8837C5.38927 24.707 9.93556 24.707 12.7301 21.8837L13.7429 20.8605L11.3328 18.4232L10.32 19.4465C8.85596 20.9256 6.47117 20.9256 5.00715 19.4465C3.54313 17.9674 3.54313 15.5581 5.00715 14.0791C6.47117 12.6 8.85596 12.6 10.32 14.0791L18.036 21.8814C19.4333 23.293 21.2679 23.9977 23.1025 23.9977C24.9372 23.9977 26.7718 23.293 28.1691 21.8814C30.9659 19.0605 30.9659 14.4674 28.1714 11.6442Z" fill="#F0985E"/>
<path d="M23.1255 7.40933C24.7439 7.40933 26.0559 6.08389 26.0559 4.44887C26.0559 2.81385 24.7439 1.4884 23.1255 1.4884C21.5072 1.4884 20.1952 2.81385 20.1952 4.44887C20.1952 6.08389 21.5072 7.40933 23.1255 7.40933Z" fill="#F0985E"/>
<path d="M35.6964 6.19534V0.139526H37.7681V6.19534C37.7681 7.39534 38.4448 8.07906 39.605 8.07906C40.7514 8.07906 41.4143 7.39534 41.4143 6.19534V0.139526H43.486V6.19534C43.486 8.49767 41.9668 10.0465 39.605 10.0465C37.2432 10.0465 35.6964 8.49767 35.6964 6.19534Z" fill="#57514B"/>
<path d="M52.1873 5.90234V9.90699H50.2537V6.04187C50.2537 5.1628 49.8393 4.70234 49.0106 4.70234C48.1129 4.70234 47.5742 5.3721 47.5742 6.34885V9.90699H45.6406V5.49768C45.6406 4.86978 45.4058 4.70234 44.7843 4.7721V3.18141C46.1378 2.9442 47.008 3.18141 47.298 4.13024C47.9057 3.37675 48.693 3.04187 49.6183 3.04187C51.1652 3.04187 52.1873 4.18606 52.1873 5.90234Z" fill="#57514B"/>
<path d="M56.1097 5.02326C56.1097 2.06512 58.1262 0 60.9438 0C63.3332 0 65.032 1.31163 65.5844 3.47442H63.5127C63.0569 2.53954 62.173 1.9814 61.0266 1.9814C59.3693 1.9814 58.2229 3.19535 58.2229 5.02326C58.2229 6.85116 59.3554 8.05116 61.0266 8.05116C62.2559 8.05116 63.1812 7.42326 63.568 6.37674H65.6397C65.1563 8.66512 63.4022 10.0465 60.9438 10.0465C58.0986 10.0465 56.1097 7.96744 56.1097 5.02326Z" fill="#57514B"/>
<path d="M73.3051 7.5907C73.3051 8.21861 73.5537 8.37209 74.1752 8.31628V9.90698C72.8217 10.1302 71.9792 9.89302 71.6892 8.95814C71.0814 9.69768 70.2804 10.0465 69.3826 10.0465C67.8772 10.0465 66.8413 8.91628 66.8413 7.18605V3.1814H68.7749V7.04651C68.7749 7.95349 69.1893 8.38605 70.0041 8.38605C70.8328 8.38605 71.3715 7.67442 71.3715 6.73954V3.1814H73.3051V7.5907Z" fill="#57514B"/>
<path d="M80.7219 3.47439L80.0728 5.1209C79.686 4.9116 79.3684 4.82788 78.9817 4.82788C78.1806 4.82788 77.49 5.34416 77.4762 6.44648V9.90695H75.5426V5.49765C75.5426 4.86974 75.294 4.7302 74.6863 4.78602V3.18137C76.0536 2.94416 76.9237 3.18137 77.2 4.14416C77.6558 3.40462 78.3878 3.05579 79.1474 3.05579C79.6722 3.05579 80.1695 3.16741 80.7219 3.47439Z" fill="#57514B"/>
<path d="M81.1777 7.80001H83.0975C83.1942 8.33024 83.6085 8.5535 84.1886 8.5535C84.8377 8.5535 85.2659 8.3721 85.2659 7.96745C85.2659 7.5628 84.893 7.40931 84.1195 7.29768C82.8627 7.1442 81.3158 6.7535 81.3158 5.14885C81.3158 3.76745 82.545 3.04187 84.1748 3.04187C85.7355 3.04187 86.868 3.78141 87.0476 5.21861H85.2521C85.1554 4.7721 84.8101 4.53489 84.2162 4.53489C83.5118 4.53489 83.2356 4.78606 83.2356 5.09303C83.2356 5.51164 83.6223 5.63722 84.3543 5.74885C85.8183 5.9721 87.2133 6.37675 87.2133 7.91164C87.2133 9.25117 86.0393 10.0465 84.2162 10.0465C82.324 10.0465 81.302 9.30699 81.1777 7.80001Z" fill="#57514B"/>
<path d="M88.2078 6.51629C88.2078 4.43722 89.7132 3.04187 91.8816 3.04187C94.0362 3.04187 95.5693 4.43722 95.5693 6.51629C95.5693 8.60931 94.0362 10.0465 91.8816 10.0465C89.727 10.0465 88.2078 8.60931 88.2078 6.51629ZM93.6633 6.51629C93.6633 5.40001 92.9451 4.70234 91.8954 4.70234C90.8458 4.70234 90.1138 5.41396 90.1138 6.51629C90.1138 7.64652 90.832 8.38606 91.8954 8.38606C92.9451 8.38606 93.6633 7.66048 93.6633 6.51629Z" fill="#57514B"/>
<path d="M41.6491 21.0837H37.1189C37.3399 21.9489 38.0719 22.3954 39.2459 22.3954C39.9365 22.3954 40.6132 22.2698 41.2071 22.0047L41.5524 23.4279C40.6823 23.8326 39.9089 24 39.0111 24C36.677 24 35.1715 22.6744 35.1715 20.4837C35.1715 18.4186 36.5112 16.9954 38.652 16.9954C40.558 16.9954 41.7872 18.1535 41.7872 19.8977C41.7872 20.2744 41.7458 20.6512 41.6491 21.0837ZM37.1189 19.7861H40.0884C40.0884 18.9349 39.4945 18.5302 38.6934 18.5302C37.8924 18.5302 37.3261 18.9907 37.1189 19.7861Z" fill="#57514B"/>
<path d="M49.9084 19.8558V23.8605H47.9748V19.9954C47.9748 19.1163 47.5604 18.6558 46.7318 18.6558C45.834 18.6558 45.2954 19.3256 45.2954 20.3023V23.8605H43.3617V19.4512C43.3617 18.8233 43.127 18.6558 42.5054 18.7256V17.1349C43.859 16.8977 44.7291 17.1349 45.0191 18.0837C45.6268 17.3302 46.4141 16.9954 47.3395 16.9954C48.8864 16.9954 49.9084 18.1395 49.9084 19.8558Z" fill="#57514B"/>
<path d="M60.6399 15.9767H56.7727V18.0977H60.2394V19.9674H56.7727V23.8605H54.701V14.093H60.6399V15.9767Z" fill="#57514B"/>
<path d="M67.5181 21.5163C67.5181 22.1442 67.7115 22.3256 68.3744 22.2698V23.8605C67.3109 24.0837 66.1922 23.9023 65.9574 22.9675C65.5292 23.6093 64.6867 24 63.6785 24C62.2283 24 61.3029 23.1488 61.3029 21.893C61.3029 20.4279 62.4355 19.7163 63.9547 19.7163C64.521 19.7163 65.0596 19.7861 65.5983 19.9675V19.6465C65.5983 18.8372 64.9492 18.5721 64.0652 18.5721C63.4437 18.5721 62.7393 18.7256 62.0764 19.0326L61.7034 17.5675C62.6288 17.1768 63.5404 16.9954 64.3414 16.9954C66.1231 16.9954 67.5181 17.8186 67.5181 19.5768V21.5163ZM65.5983 21.2233V21.1256C65.1701 21 64.7558 20.9442 64.3414 20.9442C63.6371 20.9442 63.1813 21.1814 63.1813 21.7256C63.1813 22.214 63.5128 22.493 64.1343 22.493C64.9492 22.493 65.5983 21.9768 65.5983 21.2233Z" fill="#57514B"/>
<path d="M80.349 19.7721V23.8605H78.4154V19.9256C78.4154 19.1023 78.0425 18.6558 77.3243 18.6558C76.6199 18.6558 76.026 19.1861 76.026 20.0372V23.8605H74.12V19.9395C74.12 19.1163 73.7195 18.6558 73.0427 18.6558C72.2554 18.6558 71.7306 19.1861 71.7306 20.0372V23.8605H69.797V19.4512C69.797 18.8233 69.5484 18.6837 68.9407 18.7395V17.1349C70.308 16.8977 71.1781 17.1349 71.4682 18.1116C72.0759 17.2744 72.8631 16.9954 73.7056 16.9954C74.5481 16.9954 75.2387 17.414 75.6393 18.1116C76.2055 17.3721 76.979 16.9954 77.9596 16.9954C79.4098 16.9954 80.349 18.0977 80.349 19.7721Z" fill="#57514B"/>
<path d="M81.8959 15.1814C81.8959 14.5116 82.3793 14.093 83.056 14.093C83.719 14.093 84.1886 14.5116 84.1886 15.1814C84.1886 15.8233 83.719 16.2558 83.056 16.2558C82.3793 16.2558 81.8959 15.8233 81.8959 15.1814ZM82.0754 23.8605V17.1349H84.009V23.8605H82.0754Z" fill="#57514B"/>
<path d="M85.7769 21.2233V14.093H87.7105V21.1814C87.7105 22.0046 87.9039 22.2558 88.5668 22.2558C88.6911 22.2558 88.8431 22.2419 89.0364 22.2139V23.8186C88.6635 23.9023 88.3182 23.9302 87.9729 23.9302C86.4261 23.9302 85.7769 23.1628 85.7769 21.2233Z" fill="#57514B"/>
<path d="M89.8928 15.1814C89.8928 14.5116 90.3762 14.093 91.0529 14.093C91.7159 14.093 92.1855 14.5116 92.1855 15.1814C92.1855 15.8233 91.7159 16.2558 91.0529 16.2558C90.3762 16.2558 89.8928 15.8233 89.8928 15.1814ZM90.0723 23.8605V17.1349H92.0059V23.8605H90.0723Z" fill="#57514B"/>
<path d="M99.6437 21.5163C99.6437 22.1442 99.837 22.3256 100.5 22.2698V23.8605C99.4365 24.0837 98.3177 23.9023 98.0829 22.9675C97.6548 23.6093 96.8123 24 95.804 24C94.3538 24 93.4285 23.1488 93.4285 21.893C93.4285 20.4279 94.561 19.7163 96.0803 19.7163C96.6465 19.7163 97.1852 19.7861 97.7238 19.9675V19.6465C97.7238 18.8372 97.0747 18.5721 96.1908 18.5721C95.5693 18.5721 94.8649 18.7256 94.2019 19.0326L93.829 17.5675C94.7544 17.1768 95.6659 16.9954 96.467 16.9954C98.2487 16.9954 99.6437 17.8186 99.6437 19.5768V21.5163ZM97.7238 21.2233V21.1256C97.2957 21 96.8813 20.9442 96.467 20.9442C95.7626 20.9442 95.3068 21.1814 95.3068 21.7256C95.3068 22.214 95.6383 22.493 96.2598 22.493C97.0747 22.493 97.7238 21.9768 97.7238 21.2233Z" fill="#57514B"/>
</svg>
