<svg width="80" height="64" viewBox="0 0 80 64" fill="none" xmlns="http://www.w3.org/2000/svg">
<g clip-path="url(#clip0_286_14499)">
<path d="M20.8038 19.6323C26.1766 18.7581 29.8252 13.6832 28.9533 8.29711C28.0813 2.911 23.0189 -0.746679 17.6461 0.127451C12.2733 1.00158 8.6246 6.07651 9.49657 11.4626C10.3685 16.8487 15.4309 20.5064 20.8038 19.6323Z" fill="#F0985E"/>
<path d="M74.3673 31.0531C66.8594 23.5266 54.6422 23.5266 47.1272 31.0531L44.4131 33.7739L50.8918 40.2686L53.6059 37.5478C57.5397 33.6043 63.9478 33.6043 67.8816 37.5478C71.8153 41.4912 71.8153 47.9153 67.8816 51.8587C63.9478 55.8022 57.5397 55.8022 53.6059 51.8587L32.8728 31.0531C25.3648 23.5266 13.1406 23.5266 5.63272 31.0531C-1.87521 38.5796 -1.87521 50.834 5.63272 58.3605C13.1406 65.887 25.3578 65.887 32.8728 58.3605L35.5939 55.6326L29.1153 49.1379L26.3941 51.8658C22.4604 55.8093 16.0522 55.8093 12.1184 51.8658C8.18471 47.9223 8.18471 41.4983 12.1184 37.5548C16.0522 33.6114 22.4604 33.6114 26.3941 37.5548L47.1343 58.3676C50.8918 62.1343 55.8195 64.0142 60.7543 64.0142C65.6891 64.0142 70.6169 62.1343 74.3743 58.3676C81.8752 50.8269 81.8752 38.5796 74.3673 31.0531Z" fill="#F0985E"/>
<path d="M60.8107 19.7598C65.1597 19.7598 68.6853 16.2255 68.6853 11.8658C68.6853 7.50606 65.1597 3.9718 60.8107 3.9718C56.4618 3.9718 52.9362 7.50606 52.9362 11.8658C52.9362 16.2255 56.4618 19.7598 60.8107 19.7598Z" fill="#F0985E"/>
</g>
<defs>
<clipPath id="clip0_286_14499">
<rect width="80" height="64" fill="white"/>
</clipPath>
</defs>
</svg>
